# xmcd
#
# Track frame offsets:
#	150
#	14547
#	31490
#	44585
#	57257
#	68247
#	82300
#	97642
#	110157
#	124422
#	140142
#	152412
#	169922
#	183455
#
# Disc length: 2452
#
# Revision: 1
# Processed by: cddbd v1.5.1PL0 Copyright (c) Steve Scherf et al.
# Submitted via: VisiTrax 2.9.5.180 - For more info visit www.synapsa.com
# Normalized: r0:DSETVAR1
#
DISCID=cb09920e
DTITLE=Various Artist - CDX 112 June 1995
DYEAR=1995
DGENRE=
TTITLE0=Terri Clark - Better things to do
TTITLE1=Toby Keith - Big ol' truck
TTITLE2=Holly Dunn - Cowboys are my weekness
TTITLE3=Wade Hayes - Don't stop
TTITLE4=Gene Watson - He's back in Texas
TTITLE5=Woody Lee - I like the sound of that
TTITLE6=Carlene Carter - Love like this
TTITLE7=Clint Black - One motion
TTITLE8=Jeff Forthworthy/Scott Rouse - Party all night
TTITLE9=Lisa Brokop - Who needs you
TTITLE10=Mary Chapin Carpenter - Why walk when you can fly
TTITLE11=Alison Krauss and Union Station - Baby, know that I found you
TTITLE12=Kieran Kane - This dirty little town
TTITLE13=Terri Clark - Liner
EXTD=
EXTT0=
EXTT1=
EXTT2=
EXTT3=
EXTT4=
EXTT5=
EXTT6=
EXTT7=
EXTT8=
EXTT9=
EXTT10=
EXTT11=
EXTT12=
EXTT13=
PLAYORDER=
